<svg width="121" height="75" viewBox="0 0 121 75" fill="none" xmlns="http://www.w3.org/2000/svg">
<path d="M106.382 58.8375C106.382 33.9957 86.2442 13.8575 61.4024 13.8575C36.5607 13.8575 16.4225 33.9957 16.4225 58.8375" stroke="#D7DEE1" stroke-width="8" stroke-dasharray="1 40"/>
<path d="M114.951 66.9369H114.269V62.4675H113.141V62.0024C113.297 61.9919 113.441 61.9787 113.572 61.963C113.702 61.942 113.822 61.9078 113.932 61.8605C114.042 61.8132 114.141 61.7501 114.23 61.6713C114.319 61.5925 114.4 61.49 114.473 61.3639H114.951V66.9369ZM121 64.1543C121 64.5117 120.963 64.8612 120.89 65.2027C120.822 65.5443 120.705 65.8491 120.538 66.1171C120.37 66.3799 120.148 66.5927 119.871 66.7556C119.594 66.9185 119.25 67 118.837 67C118.419 67 118.071 66.9185 117.794 66.7556C117.517 66.5927 117.295 66.3799 117.128 66.1171C116.961 65.8491 116.843 65.5496 116.776 65.2185C116.708 64.8874 116.674 64.5327 116.674 64.1543C116.674 63.776 116.708 63.4213 116.776 63.0902C116.843 62.7539 116.961 62.4543 117.128 62.1916C117.295 61.9288 117.517 61.716 117.794 61.5531C118.071 61.3849 118.419 61.3008 118.837 61.3008C119.25 61.3008 119.594 61.3823 119.871 61.5452C120.148 61.7081 120.37 61.9236 120.538 62.1916C120.705 62.4596 120.822 62.7644 120.89 63.106C120.963 63.4475 121 63.797 121 64.1543ZM117.371 64.1543C117.371 64.4066 117.389 64.6641 117.426 64.9268C117.463 65.1896 117.533 65.4287 117.638 65.6442C117.742 65.8596 117.888 66.0357 118.077 66.1723C118.27 66.3089 118.523 66.3772 118.837 66.3772C119.145 66.3772 119.393 66.3089 119.581 66.1723C119.775 66.0357 119.924 65.8596 120.028 65.6442C120.133 65.4287 120.203 65.1896 120.24 64.9268C120.276 64.6641 120.295 64.4066 120.295 64.1543C120.295 63.9074 120.276 63.6525 120.24 63.3897C120.203 63.127 120.133 62.8879 120.028 62.6724C119.924 62.4517 119.775 62.273 119.581 62.1364C119.393 61.9945 119.145 61.9236 118.837 61.9236C118.523 61.9236 118.27 61.9945 118.077 62.1364C117.888 62.273 117.742 62.4517 117.638 62.6724C117.533 62.8879 117.463 63.127 117.426 63.3897C117.389 63.6525 117.371 63.9074 117.371 64.1543Z" fill="#1D1D1B"/>
<path d="M8.32634 64.1543C8.32634 64.5117 8.28977 64.8612 8.21662 65.2027C8.14869 65.5443 8.03113 65.8491 7.86393 66.1171C7.69673 66.3799 7.47466 66.5927 7.19773 66.7556C6.92081 66.9185 6.57595 67 6.16317 67C5.74517 67 5.3977 66.9185 5.12077 66.7556C4.84385 66.5927 4.62178 66.3799 4.45458 66.1171C4.28738 65.8491 4.16981 65.5496 4.10189 65.2185C4.03396 64.8874 4 64.5327 4 64.1543C4 63.776 4.03396 63.4213 4.10189 63.0902C4.16981 62.7539 4.28738 62.4543 4.45458 62.1916C4.62178 61.9288 4.84385 61.716 5.12077 61.5531C5.3977 61.3849 5.74517 61.3008 6.16317 61.3008C6.57595 61.3008 6.92081 61.3823 7.19773 61.5452C7.47466 61.7081 7.69673 61.9236 7.86393 62.1916C8.03113 62.4596 8.14869 62.7644 8.21662 63.106C8.28977 63.4475 8.32634 63.797 8.32634 64.1543ZM4.69754 64.1543C4.69754 64.4066 4.71583 64.6641 4.75241 64.9268C4.78898 65.1896 4.85952 65.4287 4.96402 65.6442C5.06852 65.8596 5.21483 66.0357 5.40293 66.1723C5.59625 66.3089 5.84967 66.3772 6.16317 66.3772C6.47145 66.3772 6.71964 66.3089 6.90774 66.1723C7.10107 66.0357 7.24998 65.8596 7.35448 65.6442C7.45899 65.4287 7.52952 65.1896 7.5661 64.9268C7.60267 64.6641 7.62096 64.4066 7.62096 64.1543C7.62096 63.9074 7.60267 63.6525 7.5661 63.3897C7.52952 63.127 7.45899 62.8879 7.35448 62.6724C7.24998 62.4517 7.10107 62.273 6.90774 62.1364C6.71964 61.9945 6.47145 61.9236 6.16317 61.9236C5.84967 61.9236 5.59625 61.9945 5.40293 62.1364C5.21483 62.273 5.06852 62.4517 4.96402 62.6724C4.85952 62.8879 4.78898 63.127 4.75241 63.3897C4.71583 63.6525 4.69754 63.9074 4.69754 64.1543Z" fill="#1D1D1B"/>
<path d="M6 59C6 44.6783 11.8473 30.9432 22.2557 20.8162C32.6639 10.6892 46.7806 5 61.5002 5C76.2198 5 90.3365 10.6892 100.745 20.8162C111.153 30.9432 117 44.6783 117 58.9999" stroke="#F7F8FA" stroke-width="7"/>
<path d="M6 59C6 45.6966 11.0617 32.8614 20.2148 22.9554C29.3677 13.0495 41.9677 6.77012 55.5985 5.32131C69.2294 3.8725 82.9318 7.35625 94.0781 15.1046C105.225 22.8529 113.032 34.3204 116 47.3082" stroke="#136EF6" stroke-width="7"/>
<path d="M46.266 54.952C46.458 55.72 46.8847 56.2853 47.546 56.648C48.2073 56.9893 48.9113 57.1493 49.658 57.128C50.4687 57.1067 51.1407 56.9253 51.674 56.584C52.2287 56.2427 52.6873 55.7947 53.05 55.24C53.4767 54.6427 53.7753 53.9387 53.946 53.128C54.1167 52.3173 54.1807 51.624 54.138 51.048C53.4767 51.752 52.698 52.2747 51.802 52.616C50.906 52.936 49.978 53.096 49.018 53.096C47.8873 53.0747 46.8527 52.8933 45.914 52.552C44.9967 52.1893 44.218 51.688 43.578 51.048C42.938 50.408 42.4473 49.6293 42.106 48.712C41.7647 47.7947 41.6047 46.76 41.626 45.608C41.6473 44.4347 41.8713 43.3893 42.298 42.472C42.746 41.5333 43.3433 40.744 44.09 40.104C44.8367 39.464 45.7007 38.984 46.682 38.664C47.6847 38.3227 48.7513 38.152 49.882 38.152C51.29 38.1733 52.506 38.4613 53.53 39.016C54.5753 39.5493 55.4393 40.264 56.122 41.16C56.954 42.2267 57.5407 43.4533 57.882 44.84C58.2447 46.2267 58.4473 47.688 58.49 49.224C58.5327 50.5467 58.4473 51.848 58.234 53.128C58.042 54.408 57.6687 55.592 57.114 56.68C56.4527 58.0027 55.5247 59.08 54.33 59.912C53.1567 60.744 51.6313 61.1813 49.754 61.224C48.666 61.2453 47.642 61.1067 46.682 60.808C45.722 60.5093 44.8793 60.072 44.154 59.496C43.5353 58.984 43.002 58.3547 42.554 57.608C42.1273 56.8613 41.85 55.976 41.722 54.952H46.266ZM49.85 42.216C48.8047 42.1733 47.9407 42.44 47.258 43.016C46.5753 43.592 46.2127 44.424 46.17 45.512C46.1487 46.088 46.2233 46.6 46.394 47.048C46.586 47.496 46.842 47.88 47.162 48.2C47.482 48.4987 47.866 48.7333 48.314 48.904C48.762 49.0533 49.2527 49.128 49.786 49.128C50.746 49.128 51.5567 48.8507 52.218 48.296C52.8793 47.7413 53.242 46.984 53.306 46.024C53.3273 45.5547 53.2633 45.096 53.114 44.648C52.986 44.1787 52.7727 43.7733 52.474 43.432C52.1753 43.0693 51.802 42.7813 51.354 42.568C50.9273 42.3333 50.426 42.216 49.85 42.216ZM64.4815 55.688C65.2922 55.688 65.9535 55.9333 66.4655 56.424C66.9775 56.9147 67.2335 57.608 67.2335 58.504C67.2335 59.4 66.9775 60.0827 66.4655 60.552C65.9535 61.0213 65.2922 61.256 64.4815 61.256C63.6708 61.256 62.9988 61.0213 62.4655 60.552C61.9535 60.0827 61.6975 59.4 61.6975 58.504C61.6975 57.608 61.9535 56.9147 62.4655 56.424C62.9988 55.9333 63.6708 55.688 64.4815 55.688ZM78.696 61H74.024V44.328H69.416V41.128C70.0987 41.128 70.728 41.0747 71.304 40.968C71.9013 40.84 72.456 40.648 72.968 40.392C73.416 40.1573 73.8427 39.8693 74.248 39.528C74.6533 39.1653 74.9733 38.7707 75.208 38.344H78.696V61Z" fill="#1D1D1B"/>
</svg>
