<?xml version="1.0" encoding="UTF-8"?> <svg xmlns="http://www.w3.org/2000/svg" width="600" height="300" viewBox="0 0 600 300" fill="none"> <path d="M269.724 93.3149H293.787V137.87L312.07 93.3149H335.595L315.43 142.582L336.536 202.348H312.07L296.341 154.158L293.787 158.466V202.348H269.724V93.3149ZM357.051 203.694C353.287 203.694 350.016 202.797 347.237 201.002C344.549 199.117 342.488 196.739 341.054 193.868C339.709 190.906 339.037 187.855 339.037 184.714C339.037 178.702 340.561 173.766 343.608 169.907C346.655 166.049 350.285 163.042 354.497 160.889C358.798 158.735 364.31 156.491 371.032 154.158V146.351C371.032 144.107 370.673 142.402 369.956 141.236C369.329 140.069 368.164 139.486 366.461 139.486C364.758 139.486 363.548 140.024 362.831 141.101C362.114 142.178 361.711 143.703 361.621 145.678L361.084 151.331L340.65 150.524C341.009 141.191 343.473 134.326 348.044 129.929C352.615 125.442 359.426 123.198 368.477 123.198C376.095 123.198 381.921 125.352 385.954 129.659C389.987 133.877 392.003 139.531 392.003 146.62V182.964C392.003 190.861 392.452 197.323 393.348 202.348H373.72C372.914 196.335 372.331 192.656 371.973 191.31C370.897 194.9 369.105 197.861 366.595 200.194C364.086 202.527 360.905 203.694 357.051 203.694ZM364.848 188.887C367.088 188.887 369.15 187.586 371.032 184.983V163.715C366.999 166.049 363.952 168.516 361.89 171.119C359.829 173.631 358.798 176.727 358.798 180.407C358.798 183.009 359.336 185.073 360.412 186.599C361.487 188.124 362.966 188.887 364.848 188.887ZM401.253 96.1417H423.3V111.353H401.253V96.1417ZM401.387 124.544H423.3V202.348H401.387V124.544ZM457.157 203.156C451.422 203.156 446.986 202.348 443.849 200.733C440.712 199.028 438.516 196.605 437.262 193.464C436.007 190.323 435.38 186.24 435.38 181.214V138.947H427.852V124.544H435.38V100.853H457.561V124.544H468.584V138.947H457.561V179.061C457.561 181.214 458.143 182.83 459.308 183.907C460.563 184.894 462.266 185.387 464.417 185.387C466.209 185.387 468.181 185.208 470.332 184.849V202.079C466.03 202.797 461.638 203.156 457.157 203.156ZM502.292 203.694C493.778 203.694 487.147 201.451 482.397 196.964C477.647 192.387 475.272 185.971 475.272 177.715V149.178C475.272 140.922 477.647 134.55 482.397 130.063C487.147 125.486 493.778 123.198 502.292 123.198C510.896 123.198 517.349 125.397 521.65 129.794C525.952 134.191 528.103 140.652 528.103 149.178V164.792H496.915V179.734C496.915 185.298 498.708 188.079 502.292 188.079C506.056 188.079 507.938 185.567 507.938 180.541V172.33H528.103V179.868C528.103 187.676 525.818 193.598 521.247 197.637C516.766 201.675 510.448 203.694 502.292 203.694ZM507.938 154.562V146.755C507.938 143.883 507.401 141.864 506.325 140.697C505.339 139.441 503.95 138.813 502.158 138.813C500.455 138.813 499.156 139.486 498.259 140.832C497.363 142.178 496.915 144.556 496.915 147.966V154.562H507.938ZM536.296 124.544H558.208V132.351C564.302 126.249 570.531 123.198 576.894 123.198C581.554 123.198 585.094 124.903 587.514 128.313C590.023 131.634 591.278 135.986 591.278 141.37V202.348H569.5V144.466C569.5 142.492 569.142 141.056 568.425 140.159C567.797 139.172 566.677 138.678 565.064 138.678C563.272 138.678 560.986 139.62 558.208 141.505V202.348H536.296V124.544Z" fill="black"></path> <path d="M89.8861 64L4 150C4 102.503 42.4512 64 89.8861 64Z" fill="#EC1C24"></path> <path d="M89.8862 236L175.772 150C175.772 197.496 137.319 236 89.8862 236Z" fill="#EC1C24"></path> <path d="M4 150L89.8861 236C42.4512 236 4 197.496 4 150Z" fill="#EC1C24"></path> <path d="M89.8862 64C137.319 64 175.772 102.503 175.772 150L89.8862 64Z" fill="#EC1C24"></path> <path d="M59.5216 119.594L59.5202 180.406C42.75 163.614 42.7511 136.386 59.5216 119.594Z" fill="#72F4B2"></path> <path d="M120.252 119.596C137.02 136.386 137.021 163.614 120.252 180.406V119.596Z" fill="#72F4B2"></path> <path d="M59.52 180.406L120.25 180.407C103.481 197.198 76.2898 197.198 59.52 180.406Z" fill="#72F4B2"></path> <path d="M59.5215 119.594C76.2909 102.801 103.48 102.801 120.25 119.594L120.253 119.597L59.5215 119.594Z" fill="#72F4B2"></path> <path d="M104.823 151.87C104.823 142.579 97.2982 135.043 88.0191 135.043C78.7408 135.043 71.2153 142.579 71.2153 151.87C71.2153 161.16 78.7408 168.696 88.0191 168.696C97.2982 168.696 104.823 161.16 104.823 151.87Z" fill="#9F57FC"></path> </svg> 